<svg width="43" height="43" viewBox="0 0 43 43" fill="none" xmlns="http://www.w3.org/2000/svg">
<g clip-path="url(#clip0_4_26)">
<path d="M21.3637 42.9998C33.0119 42.9998 42.4546 33.5571 42.4546 21.9089C42.4546 10.2607 33.0119 0.817993 21.3637 0.817993C9.71549 0.817993 0.272766 10.2607 0.272766 21.9089C0.272766 33.5571 9.71549 42.9998 21.3637 42.9998Z" fill="#4176FA"/>
<path d="M28.9266 18.241C22.8348 18.241 22.8269 24.3098 22.8269 24.341C22.8269 24.341 22.4096 30.4174 28.9266 30.4174C28.9266 30.4174 34.3616 30.7264 34.3616 26.1885H31.5708C31.5708 26.1885 31.6632 27.8969 29.0195 27.8969C29.0195 27.8969 26.2287 28.0827 26.2287 25.137H34.4544C34.4544 25.137 35.359 18.241 28.9266 18.241ZM26.1975 23.0109C26.1975 23.0109 26.5377 20.5679 28.9886 20.5679C31.4471 20.5679 31.4083 23.0109 31.4083 23.0109H26.1975ZM19.2248 21.4495C19.2248 21.4495 21.6445 21.2717 21.6445 18.4267C21.6445 15.5897 19.6654 14.1979 17.1529 14.1979H8.888V30.0847H17.1521C17.1521 30.0847 22.2006 30.2396 22.2006 25.3922C22.2006 25.3922 22.4175 21.4495 19.2248 21.4495ZM12.5296 17.0195H17.1525C17.1525 17.0195 18.2736 17.0195 18.2736 18.6737C18.2736 20.328 17.6164 20.5679 16.8664 20.5679H12.5296V17.0195ZM16.9209 27.263H12.5296V23.0109H17.1525C17.1525 23.0109 18.8304 22.9955 18.8225 25.1986C18.8225 27.0544 17.5781 27.2476 16.9209 27.263ZM25.5094 15.1333V17.0894H32.0655V15.1333H25.5094Z" fill="#F1F2F2"/>
</g>
<defs>
<clipPath id="clip0_4_26">
<rect width="42.1818" height="42.1818" fill="white" transform="translate(0.272736 0.818176)"/>
</clipPath>
</defs>
</svg>
