<svg width="43" height="43" viewBox="0 0 43 43" fill="none" xmlns="http://www.w3.org/2000/svg">
<g clip-path="url(#clip0_4_21)">
<path d="M21.0909 43C32.7391 43 42.1818 33.5573 42.1818 21.9091C42.1818 10.2609 32.7391 0.818176 21.0909 0.818176C9.44272 0.818176 0 10.2609 0 21.9091C0 33.5573 9.44272 43 21.0909 43Z" fill="#F26798"/>
<path d="M21.0888 8.51447C13.6939 8.51447 7.67773 14.5235 7.67773 21.909C7.67773 29.2945 13.6939 35.3031 21.0888 35.3031C28.484 35.3031 34.5006 29.2948 34.5006 21.909C34.5006 14.5235 28.484 8.51447 21.0888 8.51447ZM29.9138 14.8363C31.4436 16.7323 32.3734 19.1268 32.4163 21.736C31.9072 21.6315 29.7514 21.2296 27.1753 21.2296C26.344 21.2296 25.4692 21.2714 24.592 21.3796C24.518 21.1995 24.4439 21.0202 24.3661 20.839C24.1386 20.304 23.8935 19.7731 23.6397 19.2502C27.6047 17.6166 29.5172 15.3495 29.9138 14.8363ZM21.0888 10.6112C23.9465 10.6112 26.5587 11.673 28.554 13.4216C28.2382 13.8524 26.5253 15.9935 22.7021 17.438C20.9324 14.2032 18.9954 11.5244 18.5345 10.9026C19.356 10.7124 20.2109 10.6112 21.0888 10.6112ZM16.2219 11.709C16.6126 12.2471 18.5525 14.9544 20.3677 18.1632C15.4963 19.4438 11.1705 19.5273 10.1264 19.5273H10.0155C10.7655 16.0706 13.101 13.1982 16.2219 11.709ZM9.75833 21.9267C9.75833 21.8334 9.75983 21.7402 9.76284 21.6473C9.83051 21.6481 9.93052 21.6481 10.0602 21.6481C11.4663 21.6481 16.3471 21.5319 21.3768 20.0393C21.6821 20.6363 21.9727 21.2424 22.243 21.8481C22.1159 21.8846 21.9907 21.921 21.8663 21.9616C16.2031 23.7907 13.0905 28.6328 12.6115 29.4242C10.837 27.4248 9.75833 24.7998 9.75833 21.9267ZM21.0888 33.2413C18.4901 33.2413 16.0918 32.3612 14.1782 30.8855C14.5019 30.2509 16.8513 26.0209 23.0574 23.861C23.0611 23.8595 23.0652 23.858 23.0698 23.8569C24.6259 27.9083 25.2849 31.3085 25.4658 32.3623C24.1191 32.9285 22.64 33.2413 21.0888 33.2413ZM27.5065 31.2468C27.3546 30.375 26.7441 27.1883 25.3349 23.3016C26.1252 23.1786 26.8941 23.1301 27.6152 23.1301C29.9834 23.1301 31.8358 23.6486 32.2663 23.7802C31.7546 26.8665 29.9875 29.5373 27.5065 31.2468Z" fill="#F1F2F2"/>
</g>
<defs>
<clipPath id="clip0_4_21">
<rect width="42.1818" height="42.1818" fill="white" transform="translate(0 0.818359)"/>
</clipPath>
</defs>
</svg>
