<svg width="43" height="43" viewBox="0 0 43 43" fill="none" xmlns="http://www.w3.org/2000/svg">
<g clip-path="url(#clip0_4_37)">
<path d="M21.9091 42.9998C33.5573 42.9998 43.0001 33.5571 43.0001 21.9089C43.0001 10.2607 33.5573 0.817993 21.9091 0.817993C10.261 0.817993 0.818237 10.2607 0.818237 21.9089C0.818237 33.5571 10.261 42.9998 21.9091 42.9998Z" fill="#3B5998"/>
<path d="M27.2122 22.7342H23.4488V36.5216H17.7469V22.7342H15.0351V17.8888H17.7469V14.7532C17.7469 12.511 18.812 8.99982 23.4996 8.99982L27.7232 9.01749V13.7208H24.6587C24.156 13.7208 23.4492 13.972 23.4492 15.0416V17.8933H27.7104L27.2122 22.7342Z" fill="white"/>
</g>
<defs>
<clipPath id="clip0_4_37">
<rect width="42.1818" height="42.1818" fill="white" transform="translate(0.818176 0.818176)"/>
</clipPath>
</defs>
</svg>
