<svg width="43" height="43" viewBox="0 0 43 43" fill="none" xmlns="http://www.w3.org/2000/svg">
<g clip-path="url(#clip0_4_32)">
<path d="M21.6365 42.999C33.2846 42.999 42.7274 33.5563 42.7274 21.9081C42.7274 10.2599 33.2846 0.8172 21.6365 0.8172C9.98827 0.8172 0.545547 10.2599 0.545547 21.9081C0.545547 33.5563 9.98827 42.999 21.6365 42.999Z" fill="#007AB9"/>
<path d="M34.2353 23.606V32.3013H29.194V24.1888C29.194 22.1518 28.4661 20.7607 26.6408 20.7607C25.2478 20.7607 24.4203 21.6972 24.0549 22.6041C23.9222 22.9281 23.888 23.3782 23.888 23.8327V32.301H18.8463C18.8463 32.301 18.9139 18.5609 18.8463 17.1387H23.8883V19.2873C23.8782 19.3042 23.8639 19.3208 23.8549 19.3369H23.8883V19.2873C24.5583 18.2564 25.7531 16.7826 28.4319 16.7826C31.7486 16.7826 34.2353 18.9497 34.2353 23.606ZM13.5722 9.8299C11.8476 9.8299 10.7194 10.9619 10.7194 12.4492C10.7194 13.905 11.8149 15.0697 13.506 15.0697H13.5387C15.2971 15.0697 16.3904 13.905 16.3904 12.4492C16.357 10.9619 15.2971 9.8299 13.5722 9.8299ZM11.019 32.3013H16.0588V17.1387H11.019V32.3013Z" fill="#F1F2F2"/>
</g>
<defs>
<clipPath id="clip0_4_32">
<rect width="42.1818" height="42.1818" fill="white" transform="translate(0.545456 0.818176)"/>
</clipPath>
</defs>
</svg>
